<?xml version="1.0" encoding="UTF-8" standalone="no"?>
<svg
   width="16"
   viewBox="0 0 16 16"
   height="16"
   version="1.1"
   id="svg1"
   sodipodi:docname="arrow-right.svg"
   inkscape:version="1.4.3 (0d15f75042, 2025-12-25)"
   xmlns:inkscape="http://www.inkscape.org/namespaces/inkscape"
   xmlns:sodipodi="http://sodipodi.sourceforge.net/DTD/sodipodi-0.dtd"
   xmlns="http://www.w3.org/2000/svg"
   xmlns:svg="http://www.w3.org/2000/svg">
  <sodipodi:namedview
     id="namedview1"
     pagecolor="#505050"
     bordercolor="#ffffff"
     borderopacity="1"
     inkscape:showpageshadow="0"
     inkscape:pageopacity="0"
     inkscape:pagecheckerboard="1"
     inkscape:deskcolor="#505050"
     inkscape:zoom="48.6875"
     inkscape:cx="7.9897304"
     inkscape:cy="8"
     inkscape:window-width="1920"
     inkscape:window-height="995"
     inkscape:window-x="0"
     inkscape:window-y="0"
     inkscape:window-maximized="1"
     inkscape:current-layer="svg1" />
  <defs
     id="defs1" />
  <g
     style="fill:#bebebe"
     transform="matrix(0 -1.16361 .74817 0 -555.37314 227.93914)"
     id="g1">
    <path
       style="color:#bebebe"
       d="m 195.03,751 0,1 c -9.1e-4,0.0111 5.9e-4,0.021 -9e-5,0.0312 -0.0112,0.25496 -0.12835,0.50994 -0.31251,0.6875 l -5.7188,6.2977 -5.7188,-6.2977 c -0.18821,-0.1881 -0.28121,-0.45346 -0.28122,-0.71875 l 0,-1 1,0 c 0.26531,7e-5 0.53059,0.0931 0.71873,0.28131 l 4.2812,4.829 4.2813,-4.829 c 0.19464,-0.21073 0.46925,-0.30315 0.74998,-0.2813 z"
       id="path1" />
  </g>
  <path
     style="fill:#e0027d;fill-rule:evenodd;stroke-width:0.0205392"
     d="m 6.5109114,14.359815 c 0,-0.350179 0.00998,-0.708425 0.022172,-0.796102 0.024989,-0.179666 0.1157196,-0.446505 0.1859635,-0.546921 0.025723,-0.03677 0.8502469,-1.175188 1.8322766,-2.529817 C 10.142154,8.2925568 10.334129,8.0196858 10.312036,7.9843097 10.298398,7.9624717 9.4814681,6.8341164 8.4966365,5.4768532 7.5118048,4.11959 6.680346,2.9580779 6.6489504,2.8957153 6.5297263,2.6588951 6.5254305,2.6227777 6.5162806,1.7802675 l -0.00844,-0.776857 0.4277214,0.00664 c 0.4186915,0.0065 0.4299352,0.00781 0.53259,0.061967 0.057678,0.03043 0.1481741,0.1043712 0.2011028,0.1643132 0.086918,0.098435 4.7940402,6.7367416 4.8040572,6.7750112 0.0067,0.025744 -4.7319817,6.7117701 -4.8184781,6.7985591 -0.1574244,0.157957 -0.2148333,0.172564 -0.7074685,0.180009 l -0.436457,0.0066 z"
     id="path2" />
</svg>
