<?xml version="1.0" encoding="UTF-8" standalone="no"?>
<svg
   viewBox="0 0 32 32"
   version="1.1"
   id="svg4"
   sodipodi:docname="folder.svg"
   inkscape:version="1.4.3 (0d15f75042, 2025-12-25)"
   xmlns:inkscape="http://www.inkscape.org/namespaces/inkscape"
   xmlns:sodipodi="http://sodipodi.sourceforge.net/DTD/sodipodi-0.dtd"
   xmlns="http://www.w3.org/2000/svg"
   xmlns:svg="http://www.w3.org/2000/svg">
  <sodipodi:namedview
     id="namedview4"
     pagecolor="#505050"
     bordercolor="#ffffff"
     borderopacity="1"
     inkscape:showpageshadow="0"
     inkscape:pageopacity="0"
     inkscape:pagecheckerboard="1"
     inkscape:deskcolor="#505050"
     inkscape:zoom="23.09375"
     inkscape:cx="15.978349"
     inkscape:cy="16"
     inkscape:window-width="1920"
     inkscape:window-height="955"
     inkscape:window-x="0"
     inkscape:window-y="36"
     inkscape:window-maximized="1"
     inkscape:current-layer="svg4" />
  <defs
     id="defs3051">
    <style
       type="text/css"
       id="current-color-scheme">.ColorScheme-Accent { color: #3daee9; } .ColorScheme-Text { color: #fcfcfc; } </style>
  </defs>
  <path
     style="fill:currentColor;fill-opacity:1;stroke:none"
     d="M 2 3 L 2 10 L 1 10 L 1 29 L 12 29 L 13 29 L 31 29 L 31 8 L 30 8 L 30 5 L 16 5 L 14 3 L 2 3 z "
     class="ColorScheme-Accent"
     id="path1" />
  <path
     style="fill-opacity:0.33;fill-rule:evenodd"
     d="m 2,3 0,7 9,0 L 13,8 30,8 30,5 16,5 14,3 2,3 Z"
     id="path2" />
  <path
     style="fill:#ffffff;fill-opacity:0.2;fill-rule:evenodd"
     d="M 14 3 L 15 6 L 30 6 L 30 5 L 16 5 L 14 3 z M 13 8 L 11 10 L 1 10 L 1 11 L 12 11 L 13 8 z "
     id="path3" />
  <path
     style="fill-opacity:0.2;fill-rule:evenodd"
     d="M 13 8 L 11 9 L 2 9 L 2 10 L 11 10 L 13 8 z M 1 28 L 1 29 L 31 29 L 31 28 L 1 28 z "
     class="ColorScheme-Text"
     id="path4" />
  <path
     style="fill:#e0027d;fill-rule:evenodd;stroke-width:0.0433018"
     d="m 1.0392422,19.485792 v -8.487145 h 5.4892034 5.4892034 l 0.496559,-1.4939109 0.496559,-1.4939107 h 8.974996 8.974995 v 9.9810556 9.981055 H 16 1.0392422 Z"
     id="path5" />
  <path
     style="fill:#e002b2;fill-opacity:1;fill-rule:evenodd;stroke-width:0.0433018"
     d="m 1.0392422,10.500677 v -0.497971 h 4.9901744 4.9901744 l 0.969535,-0.9634638 c 0.533243,-0.5299053 0.960088,-0.9342354 0.948543,-0.8985115 -0.01154,0.035724 -0.230084,0.6933694 -0.485642,1.4614344 l -0.46465,1.3964819 H 6.5133099 1.0392422 Z"
     id="path6" />
  <path
     style="fill:#8b0057;fill-opacity:1;fill-rule:evenodd;stroke-width:0.0433018"
     d="m 2.0351827,5.9971412 v -2.966323 l 5.9828607,0.010978 5.9828606,0.010978 0.494361,1.4830853 0.494361,1.4830852 h 7.487595 7.487596 V 6.9932341 7.9675237 H 21.498963 13.033108 L 12.037889,8.4654939 11.04267,8.9634641 H 6.5389263 2.0351827 Z"
     id="path8" />
  <path
     style="fill:#b60089;fill-opacity:1;fill-rule:evenodd;stroke-width:0.0433018"
     d="m 15.002596,5.9215156 c -0.09642,-0.2558792 -0.925309,-2.7791367 -0.916001,-2.7884441 0.0067,-0.00666 0.439731,0.4158541 0.962385,0.9389142 l 0.950282,0.9510184 h 6.982778 6.982777 v 0.4763193 0.4763194 h -7.470912 c -5.936984,0 -7.4751,-0.011113 -7.491309,-0.054127 z"
     id="path9" />
  <path
     style="fill:#740047;fill-opacity:1;fill-rule:evenodd;stroke-width:0.0433018"
     d="M 2.0351827,9.4830853 V 9.0067659 h 4.5037952 4.5037951 l 0.865211,-0.4330176 c 0.475866,-0.2381597 0.879836,-0.4330176 0.897712,-0.4330176 0.01788,0 -0.376351,0.4092016 -0.876061,0.909337 L 11.021071,9.9594046 H 6.5281269 2.0351827 Z"
     id="path10" />
  <path
     style="fill:#740047;fill-opacity:1;fill-rule:evenodd;stroke-width:0.0433018"
     d="m 1.0392422,28.492558 v -0.47632 H 16 30.960758 v 0.47632 0.476319 H 16 1.0392422 Z"
     id="path11" />
</svg>
